<?xml version="1.0" encoding="UTF-8"?>
<svg id="Layer_2" data-name="Layer 2" xmlns="http://www.w3.org/2000/svg" viewBox="0 0 220.44 232.6">
  <defs>
    <style>
      .cls-1 {
        fill: none;
        stroke: #fff;
        stroke-miterlimit: 10;
      }
    </style>
  </defs>
  <g id="Layer_1-2" data-name="Layer 1">
    <path class="cls-1" d="M200.41,212.86C182.66,186.39,111.39,5.29,105.54.8l-53.75,133.25c-9.67,24-19.05,52.13-31.55,74.39-4.92,8.76-11.55,16.23-18.97,22.95,16.99.38,34.23.67,51.2-.07-8.41-4.01-16.53-8.31-19.84-17.69-5.17-14.68,6.31-34.8,11.83-48.26,23.83-.19,47.66-.23,71.5-.13h6.73c5.7,13.92,17.71,34.96,11.32,50.09-3.56,8.43-11.27,12.68-19.34,16.01,34.54.69,69.76,1.3,104.27.01-7.29-5.13-13.53-11.04-18.53-18.49ZM84.78,160.65h-38.32s36.87-92.15,36.87-92.15c4.87,7.95,8.02,19.19,11.54,27.95l25.72,64.15-35.81.05Z"/>
  </g>
</svg>