<?xml version="1.0" encoding="UTF-8"?>
<svg id="Layer_3" data-name="Layer 3" xmlns="http://www.w3.org/2000/svg" viewBox="0 0 417 408">
  <defs>
    <style>
      .cls-1 {
        fill: #fff;
      }

      .cls-2, .cls-3, .cls-4 {
        fill: none;
      }

      .cls-3 {
        stroke: #fff;
      }

      .cls-3, .cls-4 {
        stroke-miterlimit: 10;
        stroke-width: 4px;
      }

      .cls-4 {
        stroke: #ee1d46;
      }
    </style>
  </defs>
  <path class="cls-3" d="M217,19.41c-97.46,0-176.47,82.63-176.47,184.55s79.01,184.56,176.47,184.56c.28,0,.57,0,.85-.01,97.07-.47,175.62-82.92,175.62-184.55S314.46,19.41,217,19.41ZM217,84.99c50.35,0,93.06,34.2,108.04,81.6h-127.91l-31.08-69.02c15.33-8.05,32.63-12.58,50.95-12.58ZM217,322.94c-51.31,0-94.7-35.53-108.87-84.36h121.43l33.43,74.23c-14.06,6.51-29.62,10.13-45.99,10.13Z"/>
  <path class="cls-3" d="M325.04,166.59h-127.91l-31.08-69.02c15.33-8.05,32.63-12.58,50.95-12.58,50.35,0,93.06,34.2,108.04,81.6Z"/>
  <path class="cls-3" d="M262.99,312.81c-14.06,6.51-29.62,10.13-45.99,10.13-51.31,0-94.7-35.53-108.87-84.36h121.43l33.43,74.23Z"/>
  <path class="cls-3" d="M330.77,203.96c0,48.59-27.86,90.38-67.78,108.85l-33.43-74.23h-121.43c-3.19-10.95-4.9-22.58-4.9-34.62,0-46.56,25.57-86.86,62.82-106.39l31.08,69.02h127.91c3.72,11.75,5.73,24.32,5.73,37.37Z"/>
  <line class="cls-3" x1="166.05" y1="97.57" x2="108.13" y2="238.58"/>
  <line class="cls-3" x1="325.67" y1="238.58" x2="229.56" y2="238.58"/>
  <line class="cls-4" x1="262.99" y1="312.82" x2="262.99" y2="312.81"/>
  <line class="cls-3" x1="229.56" y1="238.58" x2="197.13" y2="166.59"/>
  <g>
    <path class="cls-1" d="M367.61,170.85l.69,3.65-20.49,3.88-.69-3.65,20.5-3.88ZM368.26,164.3l3.04,16.06-3.51.67-3.04-16.06,3.52-.67Z"/>
    <path class="cls-1" d="M372.57,196.17l.1,2.72-22.38,9.38-.15-4.01,16.69-6.5-17.13-5.24-.15-4.01,23.02,7.68ZM357.58,192.21l.45,11.94-3.58.13-.45-11.95,3.58-.13Z"/>
    <path class="cls-1" d="M353.02,218.12l-1.64,13.05-3.55-.45,1.64-13.05,3.55.45ZM372.23,218.77l-.47,3.71-22.54-2.83.46-3.71,22.54,2.83Z"/>
    <path class="cls-1" d="M349.08,241.06l-3.77,12.82-3.43-1.01,3.77-12.82,3.43,1.01ZM367.88,244.97l-1.05,3.58-21.8-6.41,1.05-3.58,21.8,6.41ZM358.18,243.74l-3.28,11.17-3.42-1,3.28-11.17,3.42,1ZM367.44,246.46l-3.77,12.82-3.43-1.01,3.77-12.82,3.43,1.01Z"/>
    <path class="cls-1" d="M359.09,271.09l-1.81,3.64-20.01.95-.2-.52,16.01,7.98-1.62,3.24-20.32-10.13,1.83-3.66,19.76-1.04.2.52-15.77-7.86,1.62-3.25,20.32,10.13Z"/>
    <path class="cls-1" d="M340.01,300.43l-2.21,2.99-16.77-12.4,2.21-2.99,16.77,12.4ZM345.26,296.46l-9.72,13.14-2.88-2.13,9.72-13.14,2.88,2.13Z"/>
    <path class="cls-1" d="M303.65,323.13l-2.6,2.96-11.37-4.78,3.52-2.78,10.45,4.59ZM309.74,321.99l-6.15,4.85c-.41.32-.69.71-.85,1.16-.16.45-.18.92-.06,1.43.12.5.37,1,.75,1.5.38.48.8.84,1.26,1.07s.93.32,1.4.28.92-.24,1.33-.57l6.15-4.85,2.22,2.81-6.23,4.92c-1.01.79-2.06,1.27-3.16,1.44-1.1.17-2.18.02-3.22-.44-1.05-.46-1.98-1.21-2.8-2.25-.83-1.05-1.34-2.13-1.55-3.26-.21-1.13-.1-2.21.33-3.24.42-1.04,1.13-1.95,2.13-2.74l6.23-4.92,2.22,2.81ZM317.01,328.71l-2.93,2.31-14.08-17.85,2.93-2.31,14.08,17.85Z"/>
    <path class="cls-1" d="M282.88,329.58l-11.83,6.22-1.67-3.17,11.83-6.22,1.67,3.17ZM287.29,337.98l-10.3,5.42-1.66-3.15,10.3-5.42,1.66,3.15ZM291.78,346.52l-11.83,6.22-1.67-3.17,11.83-6.22,1.67,3.17ZM293.15,345.8l-3.31,1.74-10.57-20.11,3.3-1.74,10.57,20.11Z"/>
    <path class="cls-1" d="M263.4,348.21l-6.94,2.14c-.58.18-1.04.46-1.39.86-.35.4-.57.88-.67,1.44-.09.56-.04,1.16.15,1.8.2.65.49,1.18.88,1.59.39.41.84.69,1.37.82s1.07.11,1.65-.07l6.94-2.14,1.05,3.42-6.84,2.11c-1.32.41-2.57.49-3.75.25-1.18-.24-2.2-.78-3.06-1.62s-1.5-1.91-1.91-3.24c-.41-1.32-.49-2.57-.24-3.74.25-1.17.79-2.19,1.63-3.04.84-.86,1.92-1.49,3.24-1.9l6.84-2.11,1.05,3.42ZM268.16,357.55l-3.57,1.1-6.68-21.71,3.57-1.1,6.68,21.71Z"/>
    <path class="cls-1" d="M232.53,352.81l-3.78,1.13-7.09-10.1,4.46-.48,6.41,9.45ZM238.29,355.09l-7.78.84c-.52.06-.96.23-1.33.53-.37.3-.64.69-.81,1.18-.17.49-.22,1.04-.17,1.67.07.61.23,1.14.5,1.58.27.44.61.77,1.04.98.43.21.9.29,1.43.23l7.78-.84.38,3.56-7.89.85c-1.27.14-2.42-.02-3.44-.46-1.02-.45-1.85-1.14-2.5-2.09-.64-.95-1.03-2.08-1.17-3.39-.14-1.33,0-2.52.42-3.58.43-1.06,1.09-1.92,2-2.57.91-.65,2-1.05,3.26-1.18l7.89-.85.38,3.56ZM240.88,364.65l-3.71.4-2.43-22.6,3.71-.4,2.43,22.6Z"/>
    <path class="cls-1" d="M209.99,366.26l-13.31-1.09.29-3.57,13.31,1.09-.29,3.57ZM211.55,347.18l-13.31-1.09.29-3.57,13.31,1.09-.29,3.57ZM210.78,356.63l-11.6-.95.29-3.55,11.6.95-.29,3.55ZM211.53,366.38l-3.72-.3,1.85-22.64,3.72.3-1.85,22.64Z"/>
    <path class="cls-1" d="M186.44,340.04c.91.47,1.74,1.03,2.48,1.66s1.38,1.35,1.92,2.13l-2.7,2.35c-.65-.95-1.45-1.75-2.4-2.4-.95-.66-2.01-1.14-3.19-1.47-1.47-.4-2.68-.46-3.63-.15-.95.3-1.56.93-1.82,1.88h0c-.19.69-.15,1.27.1,1.77s.65.92,1.18,1.26,1.23.72,2.1,1.14c.03.02.06.03.09.04.03,0,.06.02.09.04l.26.12c1.4.64,2.53,1.26,3.38,1.85s1.49,1.4,1.92,2.44c.43,1.04.43,2.34,0,3.9h0c-.38,1.4-1.02,2.5-1.91,3.31s-2,1.31-3.33,1.5c-1.33.19-2.82.05-4.49-.41-.78-.21-1.55-.52-2.29-.91s-1.44-.86-2.11-1.41c-.67-.54-1.29-1.17-1.86-1.86l2.56-2.49c.68.83,1.41,1.53,2.2,2.08.79.55,1.6.94,2.43,1.17,1.39.38,2.53.42,3.43.12.9-.3,1.47-.91,1.73-1.83h0c.19-.71.15-1.31-.14-1.82-.28-.51-.69-.94-1.23-1.29s-1.3-.77-2.3-1.27c-.04-.02-.07-.04-.11-.05-.03-.01-.07-.03-.11-.05-.05-.02-.1-.05-.16-.08s-.11-.05-.16-.08c-1.28-.64-2.32-1.28-3.13-1.91-.8-.63-1.4-1.45-1.78-2.46-.38-1.01-.37-2.25.03-3.7v-.03c.38-1.37,1.03-2.45,1.94-3.25.91-.8,2.05-1.28,3.41-1.45,1.36-.17,2.91-.02,4.64.46,1.05.29,2.04.67,2.95,1.14Z"/>
    <path class="cls-1" d="M156.23,353.6l-12.02-5.83,1.56-3.22,12.02,5.83-1.56,3.22ZM160.44,344.91l-10.48-5.08,1.55-3.21,10.48,5.08-1.55,3.21ZM164.58,336.38l-12.02-5.83,1.56-3.22,12.02,5.83-1.56,3.22ZM157.62,354.28l-3.36-1.63,9.91-20.44,3.36,1.63-9.91,20.44Z"/>
    <path class="cls-1" d="M133.25,341.16l-3.26-2.43,2.62-19.86.54-.1-10.7,14.34-2.9-2.17,13.58-18.19,3.28,2.45-2.49,19.63-.54.1,10.54-14.12,2.9,2.17-13.58,18.19Z"/>
    <path class="cls-1" d="M110.71,322.93l-11.13-11.97,2.62-2.44,11.13,11.97-2.62,2.44ZM107.77,317.04l-2.53-2.72,15.28-14.2,2.53,2.72-15.28,14.2Z"/>
    <path class="cls-1" d="M90.11,298.15l-1.52-2.26,14.1-19.75,2.24,3.33-10.77,14.31,17.32-4.56,2.24,3.33-23.62,5.59ZM104.94,293.62l-6.67-9.92,2.97-2,6.67,9.92-2.97,2Z"/>
    <path class="cls-1" d="M80.23,282.12l-6.89-14.82,3.24-1.51,6.89,14.82-3.24,1.51ZM79.25,275.61l-1.57-3.37,18.91-8.79,1.57,3.37-18.91,8.79Z"/>
    <path class="cls-1" d="M90.35,246.83l1.17,3.63-21.63,6.95-1.17-3.63,21.63-6.95Z"/>
    <path class="cls-1" d="M86.17,233.99c-.47,1.33-1.27,2.44-2.39,3.33-1.13.89-2.51,1.48-4.15,1.77l-6.34,1.12c-1.64.29-3.14.21-4.51-.23-1.36-.45-2.49-1.21-3.39-2.3s-1.49-2.43-1.77-4.02c-.28-1.59-.19-3.05.28-4.38s1.27-2.44,2.39-3.33c1.13-.89,2.51-1.48,4.15-1.77l6.34-1.12c1.64-.29,3.14-.21,4.51.23,1.36.45,2.5,1.21,3.39,2.3.9,1.09,1.49,2.43,1.77,4.02s.19,3.05-.28,4.38ZM81.86,228.12c-.48-.58-1.1-.98-1.84-1.21-.74-.23-1.56-.26-2.45-.1l-6.55,1.16c-.89.16-1.65.47-2.27.94-.62.47-1.06,1.06-1.31,1.76-.26.71-.31,1.48-.16,2.32.15.84.46,1.55.95,2.13.48.58,1.1.98,1.84,1.21.74.23,1.56.26,2.45.11l6.55-1.16c.89-.16,1.65-.47,2.27-.94.62-.47,1.06-1.06,1.31-1.76s.31-1.48.16-2.32-.46-1.55-.95-2.12Z"/>
    <path class="cls-1" d="M71.68,210.92l-.11-7.26c0-.6-.16-1.13-.44-1.58s-.68-.8-1.2-1.04c-.51-.25-1.1-.37-1.77-.36-.68.01-1.27.14-1.78.4s-.9.62-1.17,1.08c-.27.46-.41,1-.4,1.6l.11,7.26-3.58.06-.11-7.16c-.02-1.38.25-2.61.81-3.67.56-1.06,1.36-1.89,2.41-2.49s2.26-.91,3.64-.93c1.39-.02,2.61.25,3.66.82,1.06.57,1.88,1.37,2.47,2.42.59,1.04.89,2.26.92,3.64l.11,7.15-3.58.06ZM61.38,212.88l-.06-3.73,22.72-.35.06,3.73-22.72.35Z"/>
    <path class="cls-1" d="M62.11,184.84l.66-4.01,18.84-6.82.34.44-17.65-2.9.59-3.58,22.4,3.68-.66,4.04-18.57,6.83-.34-.44,17.39,2.85-.59,3.58-22.4-3.68Z"/>
  </g>
  <g>
    <path class="cls-1" d="M95.44,145.04c-1.14.8-2.42,1.23-3.85,1.27-1.43.04-2.93-.31-4.5-1.05l-5.63-2.67c-1.57-.75-2.79-1.68-3.66-2.82-.87-1.13-1.35-2.39-1.46-3.79s.2-2.83.91-4.32c.58-1.23,1.38-2.23,2.38-2.98s2.16-1.23,3.46-1.42c1.31-.19,2.7-.09,4.17.31l-1.65,3.47c-.74-.14-1.44-.15-2.11-.02-.67.13-1.25.39-1.76.77-.5.38-.89.86-1.17,1.44-.37.78-.51,1.54-.43,2.28.08.74.38,1.41.88,2.03s1.2,1.14,2.08,1.56l5.63,2.67c.88.42,1.73.63,2.52.63.8,0,1.5-.21,2.12-.61.62-.4,1.11-1,1.48-1.78.28-.59.41-1.2.4-1.83s-.18-1.24-.5-1.83c-.32-.6-.78-1.14-1.39-1.63l1.65-3.47c1.23.9,2.19,1.91,2.87,3.05.68,1.13,1.04,2.33,1.09,3.58.05,1.25-.21,2.49-.79,3.71-.71,1.49-1.63,2.63-2.76,3.44Z"/>
    <path class="cls-1" d="M87.13,113.95l2.16-3.05,18.55,13.14-2.16,3.05-18.55-13.14ZM96,118.34l4.52-6.39c.3-.43.46-.88.49-1.35.02-.47-.09-.94-.35-1.39-.26-.45-.64-.86-1.14-1.23-.5-.36-1.01-.58-1.52-.67-.51-.09-.98-.05-1.42.13s-.81.49-1.12.92l-4.52,6.39-2.92-2.07,4.59-6.48c.74-1.05,1.62-1.8,2.63-2.28,1.01-.47,2.08-.63,3.22-.49,1.13.15,2.24.6,3.32,1.37,1.09.77,1.89,1.67,2.4,2.69.51,1.02.72,2.09.6,3.2-.11,1.11-.54,2.19-1.27,3.23l-4.59,6.48-2.92-2.07ZM101.52,115.52l1.65-3.58,12.26,1.37-2.59,3.66-11.32-1.45Z"/>
    <path class="cls-1" d="M105.07,90.85l2.66-2.62,15.95,16.18-2.66,2.62-15.95-16.18ZM106.17,89.76l9.51-9.38,2.51,2.55-9.51,9.38-2.51-2.55ZM112.95,96.64l8.29-8.17,2.5,2.54-8.29,8.17-2.5-2.54ZM119.61,103.39l9.51-9.38,2.51,2.55-9.51,9.38-2.51-2.55Z"/>
    <path class="cls-1" d="M130.75,68.75l2.25-1.53,19.85,13.97-3.32,2.26-14.39-10.67,4.68,17.29-3.32,2.26-5.75-23.58ZM135.37,83.55l9.88-6.73,2.02,2.96-9.88,6.73-2.02-2.96Z"/>
    <path class="cls-1" d="M146.81,58.74l14.85-6.82,1.49,3.25-14.85,6.82-1.49-3.25ZM153.33,57.8l3.38-1.55,8.71,18.95-3.38,1.55-8.71-18.95Z"/>
    <path class="cls-1" d="M181.96,69.2l-3.65,1.1-6.57-21.75,3.65-1.1,6.57,21.75Z"/>
    <path class="cls-1" d="M186.56,44.43l3.9-.56,7.43,15.59,2.74-17.05,3.9-.56-4.18,23.55-3.15.45-10.64-21.42Z"/>
    <path class="cls-1" d="M216.15,41.45l3.73.15-.91,22.7-3.73-.15.91-22.7ZM216.94,60.64l13.35.53-.14,3.58-13.35-.53.14-3.58ZM217.32,51.16l11.63.46-.14,3.56-11.63-.46.14-3.56ZM217.7,41.52l13.35.53-.14,3.58-13.35-.53.14-3.58Z"/>
    <path class="cls-1" d="M255.69,70.19c-.88-.53-1.67-1.14-2.36-1.82-.7-.68-1.29-1.43-1.77-2.25l2.85-2.17c.58.99,1.33,1.84,2.23,2.55.9.72,1.93,1.27,3.08,1.67,1.44.5,2.64.63,3.61.39.97-.24,1.62-.82,1.94-1.76v-.02c.23-.66.24-1.24.02-1.76-.22-.51-.58-.96-1.09-1.34-.51-.38-1.18-.81-2.02-1.27-.03-.02-.05-.04-.08-.05s-.06-.03-.08-.05l-.25-.14c-1.35-.74-2.44-1.43-3.25-2.07-.81-.65-1.4-1.5-1.76-2.56-.36-1.06-.27-2.36.26-3.9v-.02c.48-1.36,1.18-2.41,2.13-3.17.95-.75,2.09-1.18,3.42-1.28,1.34-.1,2.82.14,4.45.7.77.27,1.51.62,2.22,1.06.71.44,1.38.96,2.01,1.54.63.59,1.21,1.25,1.73,1.98l-2.72,2.31c-.62-.88-1.31-1.62-2.06-2.22s-1.53-1.05-2.35-1.33c-1.36-.47-2.49-.59-3.41-.35-.92.24-1.53.81-1.84,1.72v.02c-.24.68-.24,1.28.01,1.81s.63.98,1.14,1.36c.51.38,1.25.86,2.21,1.42.04.02.07.04.1.06.03.02.07.04.1.06.05.03.1.06.15.09.06.03.11.06.15.09,1.24.73,2.23,1.43,2.99,2.12s1.3,1.54,1.61,2.58c.31,1.04.22,2.27-.27,3.69v.03c-.48,1.34-1.19,2.38-2.15,3.11-.96.74-2.13,1.14-3.5,1.22-1.37.08-2.91-.17-4.6-.76-1.03-.36-1.99-.8-2.87-1.34Z"/>
    <path class="cls-1" d="M287.38,61.19l3.25,1.8-10.1,18.25-3.25-1.8,10.1-18.25ZM282.76,56.51l14.3,7.91-1.73,3.13-14.3-7.91,1.73-3.13Z"/>
    <path class="cls-1" d="M294.72,89.59c-.54-1.28-.66-2.61-.36-4s1-2.77,2.12-4.16l9.07-11.31,2.91,2.34-9.14,11.4c-.93,1.15-1.34,2.29-1.25,3.4s.68,2.11,1.77,2.98c1.1.88,2.2,1.24,3.31,1.09s2.13-.8,3.05-1.96l9.14-11.4,2.91,2.34-9.07,11.31c-1.11,1.39-2.32,2.38-3.61,2.96s-2.62.76-3.98.51-2.72-.91-4.06-1.98c-1.33-1.07-2.27-2.24-2.8-3.52Z"/>
    <path class="cls-1" d="M327.72,89.5l2.44,2.83-17.2,14.84-2.44-2.83,17.2-14.84ZM314.63,103.63l3.46,4.01c1.01,1.17,2.08,1.82,3.22,1.96,1.14.14,2.24-.25,3.32-1.18l5.06-4.37c1.07-.93,1.62-1.96,1.65-3.11s-.46-2.3-1.47-3.47l-3.46-4.01,2.71-2.34,3.4,3.94c1.21,1.4,2.01,2.81,2.39,4.23.38,1.41.33,2.78-.14,4.09-.47,1.32-1.36,2.54-2.66,3.66l-4.87,4.2c-1.27,1.1-2.59,1.79-3.95,2.07s-2.73.14-4.08-.43c-1.36-.57-2.65-1.57-3.88-2.99l-3.39-3.93,2.71-2.34Z"/>
    <path class="cls-1" d="M328.29,127.42l-2.07-3.2,19.09-12.31,2.07,3.2-19.1,12.31Z"/>
    <path class="cls-1" d="M335.62,138.74c.11-1.41.6-2.68,1.46-3.83.86-1.15,2.05-2.07,3.56-2.77l5.84-2.71c1.51-.7,2.98-1.01,4.42-.93,1.43.08,2.72.53,3.87,1.36s2.06,1.97,2.74,3.43c.68,1.46.96,2.9.85,4.31-.11,1.41-.6,2.68-1.46,3.83-.86,1.15-2.05,2.07-3.56,2.77l-5.84,2.71c-1.51.7-2.98,1.01-4.42.93-1.43-.08-2.72-.53-3.87-1.36s-2.06-1.97-2.74-3.43c-.68-1.47-.96-2.9-.85-4.31ZM341.29,143.3c.61.43,1.31.66,2.09.69.78.03,1.58-.15,2.4-.53l6.04-2.8c.82-.38,1.47-.88,1.95-1.49.48-.61.75-1.29.82-2.04.07-.75-.08-1.51-.44-2.29s-.85-1.38-1.46-1.81c-.61-.43-1.31-.66-2.09-.69-.78-.03-1.58.15-2.4.53l-6.04,2.8c-.82.38-1.47.88-1.95,1.49-.48.61-.75,1.29-.82,2.04-.07.75.08,1.51.44,2.28s.85,1.38,1.46,1.81Z"/>
  </g>
  <text/>
  <path class="cls-2" d="M501.95,359.29c2.91,11.95,4.46,24.47,4.46,37.37,0,83.39-64.64,151-144.38,151s-144.38-67.6-144.38-151c0-12.9,1.55-25.42,4.46-37.37"/>
</svg>